<?xml version="1.0" encoding="utf-8"?>
<!-- Generator: Adobe Illustrator 26.3.1, SVG Export Plug-In . SVG Version: 6.00 Build 0)  -->
<svg version="1.0" id="Layer_1" xmlns="http://www.w3.org/2000/svg" xmlns:xlink="http://www.w3.org/1999/xlink" x="0px" y="0px"
	 viewBox="0 0 411.37 58.29" style="enable-background:new 0 0 411.37 58.29;" xml:space="preserve">
<path d="M128.66,0h-22.54c-3.65,0-6.6,2.96-6.6,6.6c0,3.65,2.96,6.6,6.6,6.6h22.54c3.65,0,6.6-2.96,6.6-6.6
	C135.26,2.96,132.31,0,128.66,0z M106.12,35.75c3.65,0,6.6-2.96,6.6-6.6c0-3.65-2.96-6.6-6.6-6.6c-3.65,0-6.6,2.96-6.6,6.6
	C99.51,32.79,102.47,35.75,106.12,35.75z M205.63,0h-22.54c-3.65,0-6.6,2.96-6.6,6.6c0,3.65,2.96,6.6,6.6,6.6h22.54
	c3.65,0,6.6-2.96,6.6-6.6C212.23,2.96,209.28,0,205.63,0z M128.66,45.09h-22.54c-3.65,0-6.6,2.96-6.6,6.6c0,3.65,2.96,6.6,6.6,6.6
	h22.54c3.65,0,6.6-2.96,6.6-6.6C135.26,48.04,132.31,45.09,128.66,45.09z M160.54,0c-3.65,0-6.6,2.96-6.6,6.6
	c0,3.65,2.96,6.6,6.6,6.6c3.65,0,6.6-2.96,6.6-6.6C167.14,2.96,164.19,0,160.54,0z M83.57,45.09c-3.65,0-6.6,2.96-6.6,6.6
	c0,3.65,2.96,6.6,6.6,6.6s6.6-2.96,6.6-6.6C90.18,48.04,87.22,45.09,83.57,45.09z M83.57,0c-3.65,0-6.6,2.96-6.6,6.6
	c0,3.65,2.96,6.6,6.6,6.6s6.6-2.96,6.6-6.6C90.18,2.96,87.22,0,83.57,0z M51.69,0H29.15c-3.65,0-6.6,2.96-6.6,6.6
	c0,3.65,2.96,6.6,6.6,6.6h22.54c3.65,0,6.6-2.96,6.6-6.6C58.29,2.96,55.34,0,51.69,0z M6.6,22.54c-3.65,0-6.6,2.96-6.6,6.6
	c0,3.65,2.96,6.6,6.6,6.6s6.6-2.96,6.6-6.6C13.21,25.5,10.25,22.54,6.6,22.54z M51.69,45.09H29.15c-3.65,0-6.6,2.96-6.6,6.6
	c0,3.65,2.96,6.6,6.6,6.6h22.54c3.65,0,6.6-2.96,6.6-6.6C58.29,48.04,55.34,45.09,51.69,45.09z M83.57,22.54
	c-3.65,0-6.6,2.96-6.6,6.6c0,3.65,2.96,6.6,6.6,6.6s6.6-2.96,6.6-6.6C90.18,25.5,87.22,22.54,83.57,22.54z M237.51,45.09
	c-3.65,0-6.6,2.96-6.6,6.6c0,3.65,2.96,6.6,6.6,6.6c3.65,0,6.6-2.96,6.6-6.6C244.11,48.04,241.16,45.09,237.51,45.09z M183.09,22.54
	c-3.65,0-6.6,2.96-6.6,6.6l0,22.54c0,3.65,2.96,6.6,6.6,6.6c3.65,0,6.6-2.96,6.6-6.6l0-22.54C189.69,25.5,186.73,22.54,183.09,22.54
	z M382.11,22.54c-3.65,0-6.6,2.96-6.6,6.6c0,3.65,2.96,6.6,6.6,6.6c3.65,0,6.6-2.96,6.6-6.6C388.71,25.5,385.76,22.54,382.11,22.54z
	 M237.51,22.54c-3.65,0-6.6,2.96-6.6,6.6c0,3.65,2.96,6.6,6.6,6.6c3.65,0,6.6-2.96,6.6-6.6C244.11,25.5,241.16,22.54,237.51,22.54z
	 M327.69,22.54c-3.65,0-6.6,2.96-6.6,6.6c0,3.65,2.96,6.6,6.6,6.6c3.65,0,6.6-2.96,6.6-6.6C334.29,25.5,331.33,22.54,327.69,22.54z
	 M360.16,22.57c-3.91-0.34-7.19,2.74-7.19,6.58l0,22.2c0,3.48,2.54,6.62,6.01,6.92c3.91,0.34,7.19-2.74,7.19-6.58l0-22.2
	C366.17,26.01,363.63,22.87,360.16,22.57z M404.77,0c-3.67,0.01-6.66,2.98-6.69,6.63l-0.14,22.6c-0.02,3.66,2.93,6.61,6.6,6.6
	c3.67-0.01,6.66-2.98,6.69-6.64l0.14-22.6C411.4,2.95,408.44-0.01,404.77,0z M382.11,0c-3.65,0-6.6,2.96-6.6,6.6
	c0,3.65,2.96,6.6,6.6,6.6c3.65,0,6.6-2.96,6.6-6.6C388.71,2.96,385.76,0,382.11,0z M359.57,0c-3.65,0-6.6,2.96-6.6,6.6
	c0,3.65,2.96,6.6,6.6,6.6c3.65,0,6.6-2.96,6.6-6.6C366.17,2.96,363.21,0,359.57,0z M282.6,45.09h-22.54c-3.65,0-6.6,2.96-6.6,6.6
	c0,3.65,2.96,6.6,6.6,6.6h22.54c3.65,0,6.6-2.96,6.6-6.6C289.2,48.04,286.25,45.09,282.6,45.09z M237.51,0c-3.65,0-6.6,2.96-6.6,6.6
	c0,3.65,2.96,6.6,6.6,6.6c3.65,0,6.6-2.96,6.6-6.6C244.11,2.96,241.16,0,237.51,0z M282.6,0h-22.54c-3.65,0-6.6,2.96-6.6,6.6
	c0,3.65,2.96,6.6,6.6,6.6h22.54c3.65,0,6.6-2.96,6.6-6.6C289.2,2.96,286.25,0,282.6,0z M260.05,35.75c3.65,0,6.6-2.96,6.6-6.6
	c0-3.65-2.96-6.6-6.6-6.6s-6.6,2.96-6.6,6.6C253.45,32.79,256.41,35.75,260.05,35.75z M305.14,22.54c-3.65,0-6.6,2.96-6.6,6.6
	c0,3.65,2.96,6.6,6.6,6.6c3.65,0,6.6-2.96,6.6-6.6C311.74,25.5,308.79,22.54,305.14,22.54z"/>
</svg>
